<mxfile host="app.diagrams.net" modified="2024-02-02T00:11:58.090Z" agent="Mozilla/5.0 (Windows NT 10.0; Win64; x64) AppleWebKit/537.36 (KHTML, like Gecko) Chrome/121.0.0.0 Safari/537.36" etag="-rbMbLSvuYj9DRtFZyUz" version="23.1.1" type="github" pages="2">
  <diagram name="Página-1" id="9p1yN0jeeB281-lw9D0t">
    <mxGraphModel dx="1434" dy="746" grid="1" gridSize="10" guides="1" tooltips="1" connect="1" arrows="1" fold="1" page="1" pageScale="1" pageWidth="827" pageHeight="1169" math="0" shadow="0">
      <root>
        <mxCell id="0" />
        <mxCell id="1" parent="0" />
        <mxCell id="OAP9CSuasoYouma8eWRJ-1" value="User" style="shape=umlActor;verticalLabelPosition=bottom;verticalAlign=top;html=1;" parent="1" vertex="1">
          <mxGeometry x="90" y="200" width="30" height="60" as="geometry" />
        </mxCell>
        <mxCell id="OAP9CSuasoYouma8eWRJ-2" value="Administrator" style="shape=umlActor;verticalLabelPosition=bottom;verticalAlign=top;html=1;" parent="1" vertex="1">
          <mxGeometry x="640" y="210" width="30" height="60" as="geometry" />
        </mxCell>
        <mxCell id="OAP9CSuasoYouma8eWRJ-4" value="EcoMeter" style="verticalAlign=top;align=left;spacingTop=8;spacingLeft=2;spacingRight=12;shape=cube;size=10;direction=south;fontStyle=4;html=1;whiteSpace=wrap;" parent="1" vertex="1">
          <mxGeometry x="170" y="40" width="450" height="580" as="geometry" />
        </mxCell>
        <mxCell id="OAP9CSuasoYouma8eWRJ-5" value="Registrarse" style="ellipse;whiteSpace=wrap;html=1;" parent="1" vertex="1">
          <mxGeometry x="260" y="110" width="140" height="70" as="geometry" />
        </mxCell>
        <mxCell id="OAP9CSuasoYouma8eWRJ-7" value="Visualize energy consumption" style="ellipse;whiteSpace=wrap;html=1;" parent="1" vertex="1">
          <mxGeometry x="260" y="200" width="140" height="70" as="geometry" />
        </mxCell>
        <mxCell id="OAP9CSuasoYouma8eWRJ-11" value="" style="endArrow=open;endFill=1;endSize=12;html=1;rounded=0;entryX=-0.007;entryY=0.6;entryDx=0;entryDy=0;entryPerimeter=0;" parent="1" target="OAP9CSuasoYouma8eWRJ-5" edge="1">
          <mxGeometry width="160" relative="1" as="geometry">
            <mxPoint x="130" y="200" as="sourcePoint" />
            <mxPoint x="260" y="160" as="targetPoint" />
          </mxGeometry>
        </mxCell>
        <mxCell id="OAP9CSuasoYouma8eWRJ-12" value="" style="endArrow=open;endFill=1;endSize=12;html=1;rounded=0;entryX=0;entryY=0.5;entryDx=0;entryDy=0;" parent="1" target="OAP9CSuasoYouma8eWRJ-7" edge="1">
          <mxGeometry width="160" relative="1" as="geometry">
            <mxPoint x="130" y="230" as="sourcePoint" />
            <mxPoint x="250" y="230" as="targetPoint" />
          </mxGeometry>
        </mxCell>
        <mxCell id="OAP9CSuasoYouma8eWRJ-13" value="Administer users" style="ellipse;whiteSpace=wrap;html=1;" parent="1" vertex="1">
          <mxGeometry x="420" y="110" width="140" height="70" as="geometry" />
        </mxCell>
        <mxCell id="OAP9CSuasoYouma8eWRJ-14" value="" style="endArrow=open;endFill=1;endSize=12;html=1;rounded=0;" parent="1" target="OAP9CSuasoYouma8eWRJ-13" edge="1">
          <mxGeometry width="160" relative="1" as="geometry">
            <mxPoint x="630" y="220" as="sourcePoint" />
            <mxPoint x="650" y="250" as="targetPoint" />
          </mxGeometry>
        </mxCell>
        <mxCell id="OAP9CSuasoYouma8eWRJ-15" value="Visualize consumption history" style="ellipse;whiteSpace=wrap;html=1;" parent="1" vertex="1">
          <mxGeometry x="240" y="300" width="140" height="70" as="geometry" />
        </mxCell>
        <mxCell id="OAP9CSuasoYouma8eWRJ-16" value="" style="endArrow=open;endFill=1;endSize=12;html=1;rounded=0;entryX=0.021;entryY=0.357;entryDx=0;entryDy=0;entryPerimeter=0;" parent="1" target="OAP9CSuasoYouma8eWRJ-15" edge="1">
          <mxGeometry width="160" relative="1" as="geometry">
            <mxPoint x="140" y="280" as="sourcePoint" />
            <mxPoint x="260" y="280" as="targetPoint" />
          </mxGeometry>
        </mxCell>
        <mxCell id="OAP9CSuasoYouma8eWRJ-17" value="Send notifications" style="ellipse;whiteSpace=wrap;html=1;" parent="1" vertex="1">
          <mxGeometry x="220" y="380" width="140" height="70" as="geometry" />
        </mxCell>
        <mxCell id="OAP9CSuasoYouma8eWRJ-18" value="" style="endArrow=open;endFill=1;endSize=12;html=1;rounded=0;exitX=0.05;exitY=0.286;exitDx=0;exitDy=0;exitPerimeter=0;" parent="1" source="OAP9CSuasoYouma8eWRJ-17" edge="1">
          <mxGeometry width="160" relative="1" as="geometry">
            <mxPoint x="150" y="360" as="sourcePoint" />
            <mxPoint x="120" y="290" as="targetPoint" />
          </mxGeometry>
        </mxCell>
        <mxCell id="OAP9CSuasoYouma8eWRJ-19" value="Administer sensors" style="ellipse;whiteSpace=wrap;html=1;" parent="1" vertex="1">
          <mxGeometry x="420" y="230" width="140" height="70" as="geometry" />
        </mxCell>
        <mxCell id="OAP9CSuasoYouma8eWRJ-20" value="" style="endArrow=open;endFill=1;endSize=12;html=1;rounded=0;entryX=1;entryY=0.5;entryDx=0;entryDy=0;" parent="1" target="OAP9CSuasoYouma8eWRJ-19" edge="1">
          <mxGeometry width="160" relative="1" as="geometry">
            <mxPoint x="630" y="250" as="sourcePoint" />
            <mxPoint x="548" y="181" as="targetPoint" />
          </mxGeometry>
        </mxCell>
      </root>
    </mxGraphModel>
  </diagram>
  <diagram id="PDxm0V0CPuH3smzRmviu" name="Página-2">
    <mxGraphModel dx="1434" dy="746" grid="1" gridSize="10" guides="1" tooltips="1" connect="1" arrows="1" fold="1" page="1" pageScale="1" pageWidth="827" pageHeight="1169" math="0" shadow="0">
      <root>
        <mxCell id="0" />
        <mxCell id="1" parent="0" />
        <mxCell id="jMdErLy_lFQl9gpQ8zCP-1" value="EcoMeter" style="verticalAlign=top;align=left;spacingTop=8;spacingLeft=2;spacingRight=12;shape=cube;size=10;direction=south;fontStyle=4;html=1;whiteSpace=wrap;movable=1;resizable=1;rotatable=1;deletable=1;editable=1;locked=0;connectable=1;" vertex="1" parent="1">
          <mxGeometry x="151" y="30" width="526" height="470" as="geometry" />
        </mxCell>
        <mxCell id="jMdErLy_lFQl9gpQ8zCP-2" value="Database" style="shape=module;align=left;spacingLeft=20;align=center;verticalAlign=top;whiteSpace=wrap;html=1;" vertex="1" parent="1">
          <mxGeometry x="210" y="130" width="100" height="50" as="geometry" />
        </mxCell>
        <mxCell id="jMdErLy_lFQl9gpQ8zCP-3" value="Sensor" style="shape=module;align=left;spacingLeft=20;align=center;verticalAlign=top;whiteSpace=wrap;html=1;" vertex="1" parent="1">
          <mxGeometry x="500" y="130" width="100" height="50" as="geometry" />
        </mxCell>
        <mxCell id="jMdErLy_lFQl9gpQ8zCP-4" value="Web page" style="shape=module;align=left;spacingLeft=20;align=center;verticalAlign=top;whiteSpace=wrap;html=1;" vertex="1" parent="1">
          <mxGeometry x="210" y="340" width="100" height="50" as="geometry" />
        </mxCell>
        <mxCell id="jMdErLy_lFQl9gpQ8zCP-5" value="User" style="shape=module;align=left;spacingLeft=20;align=center;verticalAlign=top;whiteSpace=wrap;html=1;" vertex="1" parent="1">
          <mxGeometry x="510" y="350" width="100" height="50" as="geometry" />
        </mxCell>
        <mxCell id="jMdErLy_lFQl9gpQ8zCP-6" value="" style="rounded=0;orthogonalLoop=1;jettySize=auto;html=1;endArrow=halfCircle;endFill=0;endSize=6;strokeWidth=1;sketch=0;exitX=0.11;exitY=0.54;exitDx=0;exitDy=0;exitPerimeter=0;" edge="1" target="jMdErLy_lFQl9gpQ8zCP-8" parent="1" source="jMdErLy_lFQl9gpQ8zCP-3">
          <mxGeometry relative="1" as="geometry">
            <mxPoint x="410" y="225" as="sourcePoint" />
          </mxGeometry>
        </mxCell>
        <mxCell id="jMdErLy_lFQl9gpQ8zCP-7" value="" style="rounded=0;orthogonalLoop=1;jettySize=auto;html=1;endArrow=oval;endFill=0;sketch=0;sourcePerimeterSpacing=0;targetPerimeterSpacing=0;endSize=10;exitX=1;exitY=0.5;exitDx=0;exitDy=0;" edge="1" target="jMdErLy_lFQl9gpQ8zCP-8" parent="1" source="jMdErLy_lFQl9gpQ8zCP-2">
          <mxGeometry relative="1" as="geometry">
            <mxPoint x="370" y="225" as="sourcePoint" />
          </mxGeometry>
        </mxCell>
        <mxCell id="jMdErLy_lFQl9gpQ8zCP-8" value="" style="ellipse;whiteSpace=wrap;html=1;align=center;aspect=fixed;fillColor=none;strokeColor=none;resizable=0;perimeter=centerPerimeter;rotatable=0;allowArrows=0;points=[];outlineConnect=1;" vertex="1" parent="1">
          <mxGeometry x="400" y="150" width="10" height="10" as="geometry" />
        </mxCell>
        <mxCell id="jMdErLy_lFQl9gpQ8zCP-9" value="" style="rounded=0;orthogonalLoop=1;jettySize=auto;html=1;endArrow=halfCircle;endFill=0;endSize=6;strokeWidth=1;sketch=0;exitX=0;exitY=0;exitDx=10;exitDy=0;exitPerimeter=0;" edge="1" target="jMdErLy_lFQl9gpQ8zCP-11" parent="1" source="jMdErLy_lFQl9gpQ8zCP-5">
          <mxGeometry relative="1" as="geometry">
            <mxPoint x="400" y="265" as="sourcePoint" />
          </mxGeometry>
        </mxCell>
        <mxCell id="jMdErLy_lFQl9gpQ8zCP-10" value="" style="rounded=0;orthogonalLoop=1;jettySize=auto;html=1;endArrow=oval;endFill=0;sketch=0;sourcePerimeterSpacing=0;targetPerimeterSpacing=0;endSize=10;exitX=1;exitY=1;exitDx=0;exitDy=0;" edge="1" target="jMdErLy_lFQl9gpQ8zCP-11" parent="1" source="jMdErLy_lFQl9gpQ8zCP-2">
          <mxGeometry relative="1" as="geometry">
            <mxPoint x="360" y="265" as="sourcePoint" />
          </mxGeometry>
        </mxCell>
        <mxCell id="jMdErLy_lFQl9gpQ8zCP-11" value="" style="ellipse;whiteSpace=wrap;html=1;align=center;aspect=fixed;fillColor=none;strokeColor=none;resizable=0;perimeter=centerPerimeter;rotatable=0;allowArrows=0;points=[];outlineConnect=1;" vertex="1" parent="1">
          <mxGeometry x="390" y="270" width="10" height="10" as="geometry" />
        </mxCell>
        <mxCell id="jMdErLy_lFQl9gpQ8zCP-12" value="Sensor readings" style="text;html=1;strokeColor=none;fillColor=none;align=center;verticalAlign=middle;whiteSpace=wrap;rounded=0;" vertex="1" parent="1">
          <mxGeometry x="375" y="110" width="60" height="30" as="geometry" />
        </mxCell>
        <mxCell id="jMdErLy_lFQl9gpQ8zCP-13" value="" style="rounded=0;orthogonalLoop=1;jettySize=auto;html=1;endArrow=halfCircle;endFill=0;endSize=6;strokeWidth=1;sketch=0;exitX=1;exitY=0.5;exitDx=0;exitDy=0;" edge="1" target="jMdErLy_lFQl9gpQ8zCP-15" parent="1" source="jMdErLy_lFQl9gpQ8zCP-4">
          <mxGeometry relative="1" as="geometry">
            <mxPoint x="410" y="455" as="sourcePoint" />
          </mxGeometry>
        </mxCell>
        <mxCell id="jMdErLy_lFQl9gpQ8zCP-14" value="" style="rounded=0;orthogonalLoop=1;jettySize=auto;html=1;endArrow=oval;endFill=0;sketch=0;sourcePerimeterSpacing=0;targetPerimeterSpacing=0;endSize=10;exitX=0.13;exitY=0.6;exitDx=0;exitDy=0;exitPerimeter=0;" edge="1" target="jMdErLy_lFQl9gpQ8zCP-15" parent="1" source="jMdErLy_lFQl9gpQ8zCP-5">
          <mxGeometry relative="1" as="geometry">
            <mxPoint x="370" y="455" as="sourcePoint" />
          </mxGeometry>
        </mxCell>
        <mxCell id="jMdErLy_lFQl9gpQ8zCP-15" value="" style="ellipse;whiteSpace=wrap;html=1;align=center;aspect=fixed;fillColor=none;strokeColor=none;resizable=0;perimeter=centerPerimeter;rotatable=0;allowArrows=0;points=[];outlineConnect=1;" vertex="1" parent="1">
          <mxGeometry x="403.5" y="370" width="10" height="10" as="geometry" />
        </mxCell>
        <mxCell id="jMdErLy_lFQl9gpQ8zCP-16" value="" style="rounded=0;orthogonalLoop=1;jettySize=auto;html=1;endArrow=halfCircle;endFill=0;endSize=6;strokeWidth=1;sketch=0;exitX=0.5;exitY=1;exitDx=0;exitDy=0;" edge="1" target="jMdErLy_lFQl9gpQ8zCP-18" parent="1" source="jMdErLy_lFQl9gpQ8zCP-2">
          <mxGeometry relative="1" as="geometry">
            <mxPoint x="280" y="285" as="sourcePoint" />
          </mxGeometry>
        </mxCell>
        <mxCell id="jMdErLy_lFQl9gpQ8zCP-17" value="" style="rounded=0;orthogonalLoop=1;jettySize=auto;html=1;endArrow=oval;endFill=0;sketch=0;sourcePerimeterSpacing=0;targetPerimeterSpacing=0;endSize=10;exitX=0.5;exitY=0;exitDx=0;exitDy=0;" edge="1" target="jMdErLy_lFQl9gpQ8zCP-18" parent="1" source="jMdErLy_lFQl9gpQ8zCP-4">
          <mxGeometry relative="1" as="geometry">
            <mxPoint x="240" y="285" as="sourcePoint" />
          </mxGeometry>
        </mxCell>
        <mxCell id="jMdErLy_lFQl9gpQ8zCP-18" value="" style="ellipse;whiteSpace=wrap;html=1;align=center;aspect=fixed;fillColor=none;strokeColor=none;resizable=0;perimeter=centerPerimeter;rotatable=0;allowArrows=0;points=[];outlineConnect=1;" vertex="1" parent="1">
          <mxGeometry x="255" y="260" width="10" height="10" as="geometry" />
        </mxCell>
        <mxCell id="jMdErLy_lFQl9gpQ8zCP-19" value="User details" style="text;html=1;strokeColor=none;fillColor=none;align=center;verticalAlign=middle;whiteSpace=wrap;rounded=0;" vertex="1" parent="1">
          <mxGeometry x="390" y="230" width="60" height="30" as="geometry" />
        </mxCell>
        <mxCell id="jMdErLy_lFQl9gpQ8zCP-20" value="Send data to dashboards" style="text;html=1;strokeColor=none;fillColor=none;align=center;verticalAlign=middle;whiteSpace=wrap;rounded=0;" vertex="1" parent="1">
          <mxGeometry x="265" y="250" width="60" height="30" as="geometry" />
        </mxCell>
        <mxCell id="jMdErLy_lFQl9gpQ8zCP-21" value="Show dashboards" style="text;html=1;strokeColor=none;fillColor=none;align=center;verticalAlign=middle;whiteSpace=wrap;rounded=0;" vertex="1" parent="1">
          <mxGeometry x="378.5" y="330" width="60" height="30" as="geometry" />
        </mxCell>
      </root>
    </mxGraphModel>
  </diagram>
</mxfile>
